<svg xmlns="http://www.w3.org/2000/svg" xmlns:xlink="http://www.w3.org/1999/xlink" width="450" zoomAndPan="magnify" viewBox="0 0 337.5 299.999988" height="400" preserveAspectRatio="xMidYMid meet" version="1.0"><defs><filter x="0%" y="0%" width="100%" height="100%" id="85fa8b4783"><feColorMatrix values="0 0 0 0 1 0 0 0 0 1 0 0 0 0 1 0 0 0 1 0" color-interpolation-filters="sRGB"/></filter><mask id="1244e124a8"><g filter="url(#85fa8b4783)"><rect x="-33.75" width="405" fill="#000000" y="-29.999999" height="359.999986" fill-opacity="0.298"/></g></mask><clipPath id="2b9f21c148"><rect x="0" width="290" y="0" height="282"/></clipPath></defs><path fill="#ebb9ba" d="M 159.457031 28.742188 C 184.410156 57.15625 216.472656 80.214844 255.644531 97.921875 C 294.816406 115.628906 312.117188 150.195312 307.550781 201.621094 C 302.980469 253.046875 275.914062 265.558594 226.351562 239.15625 C 176.789062 212.753906 135.078125 214.265625 101.214844 243.695312 C 67.355469 273.121094 43.671875 267.746094 30.167969 227.566406 C 16.664062 187.386719 27.199219 159.789062 61.773438 144.769531 C 96.347656 129.753906 115.035156 99.558594 117.832031 54.183594 C 120.628906 8.8125 134.503906 0.332031 159.457031 28.742188 Z M 159.457031 28.742188 " fill-opacity="1" fill-rule="nonzero"/><g mask="url(#1244e124a8)"><g transform="matrix(1, 0, 0, 1, 5, 12)"><g clip-path="url(#2b9f21c148)"><path fill="#ebb9ba" d="M 207.179688 27.972656 C 217.476562 64.367188 236.492188 98.988281 264.226562 131.84375 C 291.964844 164.699219 292.707031 203.351562 266.457031 247.796875 C 240.207031 292.246094 210.394531 291.882812 177.019531 246.703125 C 143.644531 201.523438 105.34375 184.921875 62.121094 196.898438 C 18.898438 208.871094 -0.164062 193.820312 4.933594 151.738281 C 10.03125 109.65625 31.417969 89.285156 69.085938 90.621094 C 106.753906 91.957031 136.613281 72.753906 158.660156 33.003906 C 180.707031 -6.742188 196.878906 -8.421875 207.179688 27.972656 Z M 207.179688 27.972656 " fill-opacity="1" fill-rule="nonzero"/></g></g></g><path fill="#1b1c1f" d="M 160.300781 149.054688 C 147.269531 152.378906 133.324219 158.296875 124.261719 165.964844 C 114.453125 174.265625 110.316406 182.316406 109.570312 189.253906 C 108.785156 196.53125 111.664062 202.714844 116.074219 207.039062 C 133.445312 224.070312 162.488281 223.980469 186.023438 211.496094 C 200.542969 203.789062 211.921875 196.472656 220.773438 189.675781 C 218.269531 196.402344 214.613281 203.117188 209.582031 209.730469 C 189.582031 236.003906 161.585938 249.414062 135.21875 256.089844 C 95.449219 266.160156 59.3125 260.925781 59.3125 260.925781 C 58.050781 260.742188 56.875 261.617188 56.691406 262.878906 C 56.507812 264.140625 57.386719 265.3125 58.648438 265.496094 C 58.648438 265.496094 95.644531 270.875 136.355469 260.566406 C 163.640625 253.65625 192.566406 239.710938 213.261719 212.523438 C 220.332031 203.238281 224.84375 193.757812 227.34375 184.335938 C 232.375 179.996094 236.351562 175.902344 239.453125 172.101562 C 243.570312 167.050781 246.179688 162.46875 247.699219 158.464844 C 248.003906 158.347656 248.308594 158.21875 248.621094 158.078125 C 255.609375 154.9375 258.765625 147.738281 260.28125 138.523438 C 262.3125 126.136719 261.480469 109.976562 265.945312 97.113281 C 272.96875 76.890625 289.683594 69.082031 301.644531 71.785156 C 302.890625 72.066406 304.128906 71.285156 304.410156 70.042969 C 304.691406 68.800781 303.910156 67.5625 302.664062 67.28125 C 289.03125 64.199219 269.582031 72.546875 261.578125 95.601562 C 257.023438 108.707031 257.789062 125.15625 255.714844 137.777344 C 254.699219 143.980469 253.066406 149.234375 249.292969 152.289062 C 250.144531 145.652344 247.675781 141.21875 244.734375 139.300781 C 243.171875 138.28125 241.429688 137.894531 239.757812 138.136719 C 232.910156 139.125 230.816406 145.957031 232.871094 151.742188 C 234.0625 155.089844 236.636719 157.972656 240.238281 158.980469 C 240.890625 159.164062 241.578125 159.285156 242.300781 159.335938 C 240.875 162.320312 238.78125 165.609375 235.863281 169.183594 C 233.929688 171.554688 231.644531 174.039062 228.957031 176.628906 C 231.542969 159.855469 228.1875 143.476562 222.027344 128.90625 C 211.554688 104.144531 192.941406 84.691406 182.023438 77.578125 C 165.234375 66.644531 151.261719 62.066406 140.761719 62.015625 C 133.261719 61.980469 127.425781 64.210938 123.386719 68.039062 C 119.3125 71.898438 117.011719 77.414062 116.796875 84.105469 C 116.492188 93.511719 120.367188 105.378906 129.183594 117.964844 C 137.6875 130.101562 149.304688 141.105469 160.300781 149.054688 Z M 223.183594 181.820312 C 227.5625 163.886719 224.320312 146.207031 217.765625 130.703125 C 207.726562 106.964844 189.964844 88.261719 179.496094 81.445312 C 163.703125 71.15625 150.621094 66.679688 140.738281 66.632812 C 134.644531 66.601562 129.851562 68.28125 126.570312 71.390625 C 123.316406 74.46875 121.589844 78.914062 121.417969 84.257812 C 121.140625 92.902344 124.867188 103.75 132.972656 115.316406 C 142.058594 128.285156 154.804688 139.972656 166.277344 147.695312 C 172.21875 146.515625 177.753906 145.945312 182.273438 146.066406 C 186.699219 146.1875 190.222656 147.003906 192.417969 148.398438 C 194.386719 149.648438 195.476562 151.347656 195.644531 153.425781 C 195.882812 156.375 195.085938 158.445312 193.714844 159.8125 C 191.832031 161.691406 188.503906 162.367188 184.109375 161.410156 C 179.144531 160.328125 172.539062 157.1875 165.398438 152.550781 C 151.996094 155.425781 136.773438 161.433594 127.253906 169.488281 C 118.660156 176.757812 114.824219 183.671875 114.167969 189.746094 C 113.550781 195.476562 115.84375 200.339844 119.316406 203.746094 C 135.335938 219.449219 162.148438 218.933594 183.851562 207.417969 C 201.191406 198.21875 213.945312 189.617188 223.183594 181.820312 Z M 172.113281 151.351562 C 177.027344 154.183594 181.507812 156.117188 185.09375 156.898438 C 186.5 157.203125 187.746094 157.324219 188.789062 157.199219 C 189.472656 157.113281 190.050781 156.941406 190.445312 156.546875 C 191.023438 155.972656 191.136719 155.039062 191.035156 153.796875 C 190.960938 152.890625 190.199219 152.347656 189.167969 151.890625 C 187.453125 151.125 185.035156 150.761719 182.148438 150.683594 C 179.195312 150.601562 175.789062 150.835938 172.113281 151.351562 Z M 244.09375 154.667969 C 244.351562 153.75 244.539062 152.871094 244.660156 152.03125 C 245.234375 148.121094 244.40625 145.242188 242.851562 143.695312 C 242.132812 142.976562 241.269531 142.585938 240.421875 142.707031 C 237.597656 143.117188 236.574219 145.597656 236.769531 148.0625 C 236.96875 150.5625 238.328125 153.175781 240.71875 154.253906 C 241.691406 154.695312 242.820312 154.851562 244.09375 154.667969 Z M 244.09375 154.667969 " fill-opacity="1" fill-rule="evenodd"/></svg>