<svg xmlns="http://www.w3.org/2000/svg" xmlns:xlink="http://www.w3.org/1999/xlink" width="80" zoomAndPan="magnify" viewBox="0 0 60 52.499999" height="70" preserveAspectRatio="xMidYMid meet" version="1.0"><defs><clipPath id="52ece1c793"><path d="M 1 0.296875 L 59.714844 0.296875 L 59.714844 51.558594 L 1 51.558594 Z M 1 0.296875 " clip-rule="nonzero"/></clipPath></defs><g clip-path="url(#52ece1c793)"><path fill="#f4c565" d="M 5.375 51.558594 C 5.316406 51.558594 5.257812 51.53125 5.230469 51.5 C 5.171875 51.445312 5.144531 51.386719 5.144531 51.332031 C 5.515625 46.128906 10.246094 43.816406 14.3125 42.414062 C 16.460938 41.671875 19.125 41.300781 21.878906 41.015625 C 25.144531 37.1875 27.523438 32.613281 28.523438 27.726562 C 29.070312 25.097656 29.15625 22.84375 28.78125 20.84375 C 27.921875 16.328125 24.65625 12.210938 18.8125 8.269531 C 14.371094 5.269531 9.644531 2.898438 4.773438 1.210938 C 3.511719 0.78125 2.652344 0.8125 2.222656 1.269531 C 0.875 2.699219 3.054688 7.839844 4 10.011719 C 4.085938 10.210938 4.140625 10.382812 4.226562 10.527344 C 7.320312 17.957031 14.601562 27.757812 24.828125 30.929688 C 24.941406 30.957031 25 31.070312 24.972656 31.1875 C 24.941406 31.300781 24.828125 31.355469 24.714844 31.328125 C 14.285156 28.128906 6.949219 18.214844 3.796875 10.699219 C 3.742188 10.554688 3.65625 10.382812 3.570312 10.183594 C 2.539062 7.726562 0.359375 2.613281 1.90625 0.984375 C 2.480469 0.382812 3.484375 0.296875 4.886719 0.78125 C 9.816406 2.496094 14.570312 4.867188 19.039062 7.898438 C 25 11.925781 28.324219 16.128906 29.183594 20.757812 C 29.585938 22.8125 29.5 25.128906 28.925781 27.785156 C 27.921875 32.613281 25.628906 37.128906 22.480469 40.929688 C 22.996094 40.871094 23.511719 40.84375 23.996094 40.785156 C 26.921875 40.53125 29.929688 40.242188 32.25 39.585938 C 35.773438 38.585938 42.046875 36.101562 44.398438 30.558594 C 46.460938 25.671875 44.914062 20.183594 43.023438 14.554688 C 42.507812 13.042969 43.566406 11.15625 46.144531 8.925781 C 49.011719 6.441406 52.105469 4.242188 55.429688 2.382812 C 53.96875 2.984375 52.507812 3.640625 51.042969 4.269531 C 48.238281 5.496094 45.371094 6.753906 42.621094 7.753906 C 42.535156 7.785156 42.449219 7.753906 42.390625 7.699219 C 42.363281 7.667969 40.617188 5.699219 36.917969 6.382812 C 34.597656 6.8125 32.59375 8.496094 31.761719 10.640625 C 30.960938 12.726562 31.132812 15.242188 32.191406 17.5 C 32.25 17.613281 32.191406 17.726562 32.078125 17.785156 C 31.960938 17.839844 31.847656 17.785156 31.789062 17.671875 C 30.671875 15.296875 30.53125 12.667969 31.359375 10.46875 C 32.21875 8.15625 34.371094 6.382812 36.832031 5.925781 C 40.328125 5.269531 42.164062 6.8125 42.621094 7.269531 C 45.3125 6.269531 48.152344 5.039062 50.902344 3.839844 C 53.652344 2.667969 56.546875 1.410156 59.296875 0.382812 C 59.410156 0.355469 59.527344 0.382812 59.582031 0.496094 C 59.640625 0.613281 59.582031 0.726562 59.46875 0.78125 C 54.742188 2.984375 50.355469 5.839844 46.433594 9.242188 C 44.023438 11.328125 42.992188 13.097656 43.453125 14.414062 C 45.371094 20.128906 46.949219 25.699219 44.828125 30.726562 C 42.421875 36.441406 36.003906 38.988281 32.421875 40.015625 C 30.042969 40.671875 27.007812 40.957031 24.082031 41.242188 C 23.425781 41.300781 22.765625 41.359375 22.105469 41.414062 C 17.78125 46.414062 11.878906 50.128906 5.429688 51.558594 C 5.402344 51.558594 5.375 51.558594 5.375 51.558594 Z M 21.449219 41.472656 C 18.898438 41.730469 16.433594 42.101562 14.457031 42.785156 C 10.359375 44.214844 6.117188 46.328125 5.601562 51.042969 C 11.707031 49.644531 17.265625 46.1875 21.449219 41.472656 Z M 21.449219 41.472656 " fill-opacity="1" fill-rule="nonzero"/></g></svg>