<svg xmlns="http://www.w3.org/2000/svg" xmlns:xlink="http://www.w3.org/1999/xlink" width="75" zoomAndPan="magnify" viewBox="0 0 56.25 67.499996" height="90" preserveAspectRatio="xMidYMid meet" version="1.0"><defs><clipPath id="049d397be0"><path d="M 0 0.199219 L 55.511719 0.199219 L 55.511719 66.808594 L 0 66.808594 Z M 0 0.199219 " clip-rule="nonzero"/></clipPath></defs><g clip-path="url(#049d397be0)"><path fill="#f4c565" d="M 44.890625 64.8125 C 44.878906 64.65625 44.683594 62.824219 44.585938 62.703125 C 41.980469 59.484375 42.824219 60.648438 44.890625 64.8125 Z M 17.078125 22.199219 C 17.320312 22.941406 17.5625 23.675781 17.820312 24.472656 C 18.742188 23.820312 19.617188 23.207031 20.527344 22.5625 C 19.757812 22.300781 17.683594 22.085938 17.078125 22.199219 Z M 16.535156 22.21875 C 14.054688 22.21875 10.136719 23.933594 8.730469 27.519531 C 11.847656 27.242188 14.679688 26.238281 17.347656 24.707031 C 17.074219 23.867188 16.804688 23.046875 16.535156 22.21875 Z M 21.539062 31.679688 C 23.695312 26.96875 22.714844 28.871094 25.292969 24.375 C 23.988281 23.652344 22.589844 23.113281 21.191406 22.710938 C 20.117188 23.476562 19.078125 24.21875 18.023438 24.96875 C 18.027344 24.976562 19.96875 29.820312 21.539062 31.679688 Z M 16.792969 7.878906 C 15.464844 11.335938 15.511719 14.484375 16.125 18.105469 C 16.664062 17.855469 18.898438 16.328125 20.390625 14.582031 C 23.871094 10.503906 21.199219 7.832031 16.792969 7.878906 Z M 8.617188 31.636719 C 8.789062 32.464844 9.300781 33.714844 10.007812 34.675781 C 13.109375 38.90625 17.601562 39.832031 22.792969 40.214844 C 28.191406 40.617188 27.453125 40.945312 29.289062 41.355469 C 29.542969 39.734375 28.535156 38.761719 27.113281 37.957031 C 22.953125 35.589844 11.5625 32.453125 8.617188 31.636719 Z M 33.386719 35.039062 C 35.261719 27.660156 39.933594 22.910156 38.683594 17.234375 C 38.035156 14.308594 36.886719 12.558594 35.496094 11.328125 C 35.246094 11.105469 35.074219 11.136719 34.558594 12.109375 C 32.136719 16.699219 29.394531 19.097656 26.324219 23.8125 C 25.992188 24.328125 26.023438 24.167969 26.261719 24.351562 C 30.113281 27.351562 31.414062 28.78125 33.386719 35.039062 Z M 17.011719 7.335938 C 22.332031 7.71875 23.597656 10.589844 21.699219 13.664062 C 20.171875 16.140625 17.808594 17.597656 16.210938 18.722656 C 16.433594 19.667969 16.667969 20.652344 16.902344 21.640625 C 18.316406 21.597656 19.667969 21.773438 20.996094 22.121094 C 23.0625 20.503906 25.65625 17.476562 27.289062 14.15625 C 33.546875 1.433594 22.601562 -3.3125 17.011719 7.335938 Z M 53.375 10.324219 C 53.777344 20.980469 47.351562 41.25 45.839844 48.988281 C 45.007812 53.246094 44.710938 57.566406 45.066406 61.835938 C 45.136719 62.722656 44.953125 62.207031 46.113281 64.234375 C 46.292969 64.554688 46.171875 64.507812 46.304688 63.636719 C 46.902344 59.664062 48.578125 56.894531 50.957031 46.707031 C 54.257812 32.570312 55.792969 23.242188 53.375 10.324219 Z M 8.121094 27.53125 C 9.667969 23.867188 12.59375 22.171875 16.371094 21.664062 C 16.15625 20.769531 15.945312 19.878906 15.730469 18.988281 C 15.574219 19 11.042969 21.757812 8.148438 21.085938 C 3.324219 19.96875 9.789062 11.976562 14.375 11.027344 C 14.644531 10.972656 15.117188 11.019531 15.070312 11.296875 C 15.054688 11.371094 14.910156 11.488281 14.835938 11.480469 C 13.148438 11.300781 7.8125 15.160156 7.023438 18.539062 C 6.394531 21.246094 10.144531 21.546875 15.648438 18.40625 C 14.121094 9.96875 16.953125 7.769531 16.019531 7.894531 C 15.429688 7.976562 14.832031 8.023438 14.25 8.144531 C 1.945312 10.703125 -4.863281 27.53125 8.121094 27.53125 Z M 34.8125 47.296875 C 35.003906 45.984375 34.710938 44.242188 36.503906 40.277344 C 37.375 38.355469 37.296875 39.058594 39.519531 34.148438 C 39.5625 34.058594 39.71875 33.554688 40.0625 33.574219 C 40.164062 33.578125 40.308594 33.703125 40.34375 33.808594 C 40.679688 34.78125 41.0625 35.734375 41.238281 36.757812 C 41.925781 40.839844 39.480469 43.394531 38.117188 45.597656 C 36.175781 48.734375 36.847656 49.5625 42.09375 59.335938 C 42.167969 59.480469 42.101562 59.394531 44.453125 61.679688 C 44.5625 61.785156 44.570312 61.910156 44.503906 61.070312 C 43.519531 48.121094 49.007812 38.957031 52.496094 17.390625 C 53.355469 12.082031 52.53125 8.492188 52.699219 8.078125 C 52.863281 7.664062 53.246094 7.683594 53.417969 8.449219 C 55.492188 17.636719 55.789062 25.738281 53.617188 36.53125 C 48.425781 62.316406 47.023438 58.710938 46.738281 65.375 C 46.730469 65.554688 46.796875 65.894531 46.5 65.941406 C 46.046875 66.007812 45.671875 64.140625 45.257812 63.84375 C 45.820312 66.804688 45.917969 66.789062 45.628906 66.886719 C 45.335938 66.980469 45.445312 67 43.808594 63.796875 C 41.921875 60.105469 41.847656 59.847656 41.507812 59.621094 C 39.449219 58.246094 35.339844 55.492188 32.101562 53.648438 C 32.167969 54.035156 32.199219 54.355469 32.273438 54.667969 C 33.558594 60.09375 41.84375 60.480469 41.03125 61.722656 C 40.867188 61.96875 40.671875 61.734375 37.605469 60.367188 C 34.289062 58.882812 32.035156 57.5 31.613281 53.898438 C 31.582031 53.628906 31.601562 53.335938 31.832031 53.191406 C 32.199219 52.957031 32.015625 52.867188 41.125 58.679688 C 40.746094 57.925781 39.082031 54.828125 37.828125 52.351562 C 34.550781 45.90625 38.777344 45.605469 40.449219 40.5 C 41.183594 38.257812 40.761719 36.453125 40.003906 34.425781 C 39.679688 34.785156 40.25 34.472656 38.03125 38.386719 C 34.019531 45.460938 36.355469 48.253906 34.574219 47.789062 C 33.445312 47.492188 32.421875 46.949219 29.761719 47.066406 C 25.304688 47.261719 21.789062 49.253906 15.097656 46.617188 C 10.636719 44.859375 5.484375 41.628906 3.121094 37.492188 C 1.542969 34.734375 1.320312 31.90625 1.640625 30.488281 C 2.085938 28.542969 4.0625 30.199219 7.929688 30.957031 C 7.433594 27.53125 8.863281 28.136719 7.15625 28.070312 C -2.554688 27.683594 -0.71875 16.382812 7.636719 10.523438 C 11.644531 7.714844 14.585938 7.5625 16.464844 7.300781 C 19.828125 0.175781 27.070312 -1.042969 29.085938 4.074219 C 30.59375 7.902344 28.796875 13.03125 26.34375 16.859375 C 24.890625 19.132812 23.375 20.691406 21.617188 22.285156 C 26.28125 23.757812 25.300781 24.433594 25.9375 23.460938 C 29.007812 18.753906 31.714844 16.394531 34.144531 11.785156 C 34.578125 10.964844 35.015625 10.394531 35.757812 10.871094 C 37.136719 11.757812 39.492188 15.386719 39.40625 19.558594 C 39.296875 24.691406 33.070312 32.972656 33.734375 37.515625 C 33.867188 38.425781 33.089844 38.503906 33.140625 37.539062 C 33.261719 35.175781 31.417969 28.214844 25.769531 24.65625 C 25.300781 25.472656 23.617188 27.972656 22.59375 30.605469 C 22.195312 31.632812 22.144531 31.742188 22.019531 31.925781 C 20.894531 33.539062 18.226562 26.621094 17.535156 25.199219 C 14.75 26.785156 11.789062 27.8125 8.59375 28.054688 C 8.332031 28.625 8.285156 30.503906 8.519531 31.113281 C 15.035156 32.738281 23.253906 35.476562 26.003906 36.8125 C 28.070312 37.816406 29.601562 38.667969 29.828125 40.496094 C 29.921875 41.25 29.800781 42.035156 29.058594 41.839844 C 27.664062 41.472656 26.960938 41.027344 24.179688 40.832031 C 19.492188 40.503906 14.40625 40.304688 10.359375 35.945312 C 9.132812 34.621094 8.503906 33.257812 8.039062 31.554688 C 2.488281 30.007812 2.222656 29.578125 2.101562 30.882812 C 1.441406 37.9375 8.351562 43.382812 14.957031 45.992188 C 23.777344 49.480469 26.964844 45.371094 33.007812 46.796875 C 33.769531 46.976562 33.972656 47.113281 34.8125 47.296875 " fill-opacity="1" fill-rule="nonzero"/></g></svg>